ply
format ascii 1.0
comment Generated by PyMesh
element vertex 274
property float x
property float y
property float z
property float charge
property float hbond
property float hphob
property float iface
property float nx
property float ny
property float nz
element face 544
property list uchar int vertex_indices
end_header
-38.119 6.198 -16.922 -0.110491 0 4.2 0 -0.710331 0.599186 0.369333
-32.132 8.5145 -18.572 -0.456068 -0.244191 3.99913 0 0.637452 0.13647 -0.758308
-33.1225 10.41 -11.124 -0.0731416 0 2.8 0 -0.846047 -0.343699 0.407523
-31.313 0.53 -23.138 0.018894 0 2.8 0 0.505543 -0.206435 0.837741
-32.1915 6.7215 -19.363 -0.954651 -0.257478 4.2 0 0.64234 -0.0602856 -0.764045
-32.444 13.167 -16.2935 -0.0390538 0 3.8 0 0.588161 0.635812 0.499809
-32.819 8.0715 -12.824 -0.547006 0 2.8 0 -0.689216 -0.440374 0.575371
-37.835 5.706 -25.246 -1.24332 -0.074282 -3.5 0 -0.557267 0.516922 -0.649804
-30.922 12.4115 -12.515 -0.400816 0 2.8 0 0.112043 0.686667 -0.718286
-32.245 12.254 -12.444 -0.13783 0 2.8 0 -0.44856 0.668905 -0.592757
-32.952 12.62 -15.557 -0.0207745 0 3.8 0 0.491219 0.468265 0.73446
-32.6965 12.5057 -11.5903 -0.0258145 0 2.8 0 -0.787115 0.509148 -0.348165
-30.1593 -1.19125 -27.0305 -0.0302188 0 2.8 0 0.171211 -0.850053 -0.498093
-32.9725 4.8885 -15.916 -0.144296 0 4.2 0 0.531868 -0.393243 0.749984
-35.968 10.61 -16.0795 -0.0110153 0 3.8 0 -0.953924 0.129602 0.270615
-32.52 -0.982 -26.273 -0.233082 0 2.8 0 -0.549682 -0.654729 -0.518825
-33.7772 1.37775 -25.4807 -0.238135 0 2.8 0 -0.735595 -0.256858 -0.626836
-30.3825 11.1152 -15.825 0.517358 0.504887 2.8 0 0.600694 0.783823 -0.157443
-27.0308 11.216 -9.797 0.0917546 0 2.8 0 0.953161 -0.0105739 0.302278
-28.592 0.20675 -26.5058 0.0158092 0 2.8 0 0.979883 -0.149471 0.132238
-37.6818 6.581 -18.0952 -0.16048 -0.0156735 3.87454 0 -0.783688 0.60697 0.131983
-36.2168 12.4745 -16.0835 -0.0919847 0 3.8 0 -0.893405 -0.183794 0.409936
-36.4385 13.3772 -16.7325 -0.104409 0 3.8 0 -0.955643 0.294054 0.0167003
-34.2752 14.3628 -18.6805 -0.116712 0 3.8 0 -0.112017 0.654225 -0.747959
-30.9305 5.8175 -14.3935 -1.07489 -0.545815 2.8 0 -0.425554 -0.894587 0.136448
-33.5115 14.557 -16.8962 -0.0938423 0 3.8 0 0.487028 0.866834 0.106781
-36.8343 3.044 -18.1065 0.0474513 0 4.2 0 -0.15342 -0.966791 -0.204398
-29.487 2.9915 -27.8353 -0.0173951 0 2.8 0 0.443868 0.602247 -0.663536
-27.7757 7.51025 -14.787 0.294445 0 2.8 0 0.991444 -0.118666 -0.0543815
-29.3135 8.148 -11.5155 -0.102292 0 2.8 0 0.344693 -0.741506 0.575635
-37.5998 4.284 -15.9373 -0.0835795 0 4.2 0 -0.560526 -0.130489 0.817792
-31.1515 11.0983 -13.8062 -0.0991002 0 2.8 0 0.217739 0.961001 -0.170489
-31.8137 13.0857 -11.8883 -0.116406 0 2.8 0 -0.347999 0.696545 -0.627472
-37.182 8.3795 -20.78 -1.01647 0 -3.5 0 -0.348268 0.912849 -0.21311
-30.8665 2.69425 -22.2892 4.77691 0 2.8 0 0.96465 -0.210152 0.159017
-29.0627 10.0135 -9.33825 -0.315509 0 2.8 0 -0.0136194 -0.52987 0.84797
-38.7915 5.706 -21.559 -0.26499 0 -3.5 0 -0.875695 0.481987 -0.0291001
-33.1215 6.99075 -23.992 -1.19371 -0.106396 2.8 0 0.456229 0.855386 -0.245296
-31.402 1.864 -21.835 8.35008 0 2.8 0 0.635126 -0.680468 0.365484
-31.5327 12.3638 -19.4155 -0.083681 0 3.8 0 0.686365 0.222505 -0.692384
-33.198 13.7325 -18.817 -0.106945 0 3.8 0 0.171596 0.724894 -0.667146
-29.342 2.51275 -25.4468 -0.208599 0 2.8 0 0.796354 0.248604 0.551377
-34.284 1.062 -23.008 0.23455 0 2.8 0 -0.523166 -0.608596 0.596581
-36.813 6.2925 -24.7745 -1.84972 -0.502344 -3.5 0 -0.165714 0.882596 -0.439958
-34.002 6.605 -22.226 -0.149629 -0.270325 2.8 0 0.390496 0.89589 0.21188
-30.6405 0.0475 -23.7313 -0.248223 0 2.8 0 0.605902 -0.135174 0.783971
-31.948 2.33425 -20.667 3.45429 0 2.8 0 0.268909 -0.634254 0.724851
-32.19 6.57 -15.0905 -0.709325 -0.000361073 3.8 0 -0.205057 -0.884349 0.419379
-34.892 1.998 -22.799 0.4146 0 2.8 0 -0.494679 -0.763999 0.414245
-37.2207 2.06175 -24.5505 -1.46462 -0.100071 -3.5 0 0.136763 -0.871761 -0.470456
-35.6605 11.3915 -18.499 -0.101057 0 3.8 0 -0.855275 -0.134159 -0.500506
-32.7325 13.0945 -10.0382 0.0592461 0 2.8 0 -0.731627 0.583388 0.352676
-35.462 3.17 -16.0545 -0.0511144 0 4.2 0 -0.227579 -0.862019 0.452914
-29.088 6.45 -15.8215 -0.326604 -0.19356 2.8 0 0.346642 -0.491852 -0.7987
-33.8255 3.252 -19.0012 0.585822 0 4.2 0 0.218896 -0.964182 -0.149791
-32.2525 2.46 -27.1922 -0.387103 0 2.8 0 -0.684502 -0.00833912 -0.728964
-28.7155 8.0425 -12.5922 0.0499128 0 2.8 0 0.732825 -0.586288 0.345302
-30.4975 2.969 -27.804 -0.0191384 0 2.8 0 -0.0521954 0.620001 -0.782863
-28.277 6.9165 -13.8775 0.0460651 0 2.8 0 0.771993 -0.427419 0.470469
-30.7965 11.389 -16.7285 0.382847 0.0858175 3.70597 0 0.920862 0.389411 0.0192808
-35.5477 6.37675 -24.1658 -0.896233 -0.374049 -1.39895 0 -0.0893736 0.84149 -0.532829
-28.3435 11.781 -12.0518 -0.314691 0 2.8 0 0.490241 0.624562 -0.607936
-34.436 2.8895 -15.901 -0.0559157 0 4.2 0 0.0504304 -0.685757 0.726082
-29.266 6.05625 -13.5725 -1.10157 0 2.8 0 0.388124 -0.667965 0.634966
-31.354 2.285 -27.907 -0.243471 0 2.8 0 -0.342325 0.271102 -0.899621
-38.417 2.736 -22.5847 -1.47196 -0.599391 -3.5 0 -0.747698 -0.559807 0.357161
-35.9333 6.356 -15.5005 -0.0533275 0 4.2 0 -0.418964 0.247996 0.87348
-30.083 3.2155 -24.9015 -0.105149 0 2.8 0 0.796688 0.496802 0.344204
-34.016 7.0755 -23.402 -1.33803 -0.520019 2.8 0 0.0522445 0.994684 -0.0887335
-32.5213 11.0817 -10.0225 -0.28405 0 2.8 0 -0.754221 -0.313643 0.57687
-34.84 7.16125 -21.6155 0.261793 0 -3.5 0 0.541973 0.820456 -0.181981
-33.291 9.063 -18.816 -0.176383 0 4.16699 0 0.126874 0.140039 -0.981984
-31.2495 12.7083 -16.7495 -0.0133799 0 3.8 0 0.722801 0.549252 0.419382
-34.0265 0.799625 -24.343 0.0966545 0 2.8 0 -0.805548 -0.501404 -0.31573
-31.6503 5.21006 -22.986 1.35435 0 2.8 0 0.73397 0.65668 0.173374
-33.0191 11.9261 -10.6783 -0.0323223 0 2.8 0 -0.980345 0.0303534 0.194942
-30.4947 8.73375 -16.5448 0.293082 0 2.8 0 0.534585 -0.0898248 -0.840327
-31.1755 5.988 -15.4375 -0.567622 0 2.8 0 -0.0767096 -0.980225 -0.182414
-31.8263 7.56175 -18.905 -0.967236 -0.197938 4.2 0 0.72544 0.227161 -0.64972
-31.936 0.596 -27.059 -0.674475 0 2.8 0 -0.694584 -0.161167 -0.701126
-38.8905 4.91775 -23.0553 -0.651866 0 -3.5 0 -0.94449 0.327809 -0.0219266
-29.252 9.218 -9.988 -0.364596 0 2.8 0 -0.000850573 -0.665985 0.745965
-38.8704 4.01025 -22.6134 -0.856762 0 -3.5 0 -0.954813 -0.213406 0.206858
-29.881 5.3825 -14.263 -1.16261 -0.320071 2.8 0 0.0374795 -0.975953 0.214733
-30.9351 2.66913 -23.4179 1.70797 0 2.8 0 0.971235 -0.053647 0.232001
-30.9045 11.0055 -14.9375 0.462415 0 2.8 0 0.285115 0.942125 0.176383
-31.2687 11.2275 -19.0632 -0.0407267 0 3.8 0 0.754379 -0.237593 -0.611933
-33.3865 3.17475 -17.9692 0.210074 0 4.2 0 0.647601 -0.74412 -0.164007
-32.5578 4.97175 -25.0729 0.0749568 -0.600872 2.8 0 0.0729188 0.725959 -0.683862
-30.9934 3.55813 -27.128 -0.0779919 0 2.8 0 0.0174758 0.727929 -0.685429
-29.3167 7.16175 -12.9257 -0.102725 0 2.8 0 0.399771 -0.649042 0.647246
-38.363 5.39075 -24.3993 -1.40779 0 -3.5 0 -0.809822 0.521977 -0.267819
-37.8729 5.57562 -19.0578 -0.169698 0 3.28663 0 -0.992026 0.0508375 -0.115329
-32.5839 4.29925 -16.883 -0.0351568 0 4.2 0 0.868798 -0.466734 0.165377
-36.182 7.93825 -21.3516 -0.799047 0 -3.5 0 0.185487 0.895843 -0.403806
-36.0522 2.34538 -24.0649 -0.613574 0 -0.23026 0 -0.0107826 -0.962905 -0.269627
-30.3555 8.50825 -11.0155 -0.328885 0 2.8 0 -0.117581 -0.720534 0.683378
-38.1058 5.06475 -16.4524 -0.0887497 0 4.2 0 -0.817399 0.0675965 0.572093
-31.3211 1.74137 -22.8276 2.8484 0 2.8 0 0.730416 -0.489552 0.476268
-33.599 8.20925 -13.5155 -1.39509 0 3.72171 0 -0.726849 -0.218768 0.651023
-38.0965 4.42175 -25.1752 -1.80752 -0.248196 -3.5 0 -0.640177 0.0185387 -0.768004
-31.1835 9.32425 -17.175 0.446515 0 3.39197 0 0.697788 -0.188023 -0.691187
-33.9777 12.1728 -15.0077 -0.0224042 0 3.8 0 -0.103966 0.424001 0.899674
-27.7986 11.4196 -9.119 0.0795435 0 2.8 0 0.648069 0.245359 0.720976
-38.2005 3.5 -21.204 -0.247544 0 -3.5 0 -0.732754 -0.504126 0.457087
-30.7484 -1.67463 -24.4041 0.076167 0 2.8 0 0.38655 -0.73058 0.562878
-38.5185 4.681 -17.6162 -0.105754 0 4.2 0 -0.974296 -0.189035 -0.122529
-31.629 6.71488 -17.4941 -0.814224 -0.106225 4.2 0 0.890309 -0.342996 -0.299506
-33.0411 3.98762 -18.6274 0.685542 0 4.2 0 0.915469 -0.40137 -0.0286135
-34.6775 8.367 -15.2985 -0.197145 -0.393161 3.8 0 -0.720318 -0.0650916 0.690583
-34.7513 13.5875 -15.3795 -0.0845248 0 3.8 0 -0.257253 0.369394 0.892955
-34.366 14.5291 -16.0835 -0.0942631 0 3.8 0 -0.0648143 0.877775 0.474668
-32.084 4.8375 -21.7318 3.98682 0 2.8 0 0.663602 0.629763 0.40377
-32.0515 7.9025 -12.1535 -0.0926579 0 2.8 0 -0.503302 -0.626124 0.595529
-35.7103 3.42313 -20.5685 0.705017 0.239591 -3.5 0 -0.0541221 -0.958597 0.279577
-36.9302 7.69037 -18.1675 -0.12097 0 4.2 0 -0.712514 0.661116 0.235054
-34.4668 3.43637 -19.7589 0.873244 0.453906 -0.0649225 0 -0.0969602 -0.986111 0.134851
-32.6069 5.08537 -17.9861 -0.096247 -0.316999 4.2 0 0.903954 -0.382788 -0.190632
-36.8755 7.09 -17.339 0.0264156 0 4.2 0 -0.745401 0.515945 0.422112
-32.0345 3.6735 -26.913 -0.0765487 0 2.8 0 -0.413939 0.527882 -0.741616
-36.0658 12.5884 -17.6768 -0.0987364 0 3.8 0 -0.917737 -0.0745943 -0.390122
-30.0705 -0.37975 -27.8805 -0.0196583 0 2.8 0 -0.0513708 -0.425942 -0.903291
-29.493 0.066375 -24.8019 -0.316456 0 2.8 0 0.783532 -0.226092 0.578757
-31.4435 4.5285 -25.9557 0.114633 0 2.8 0 0.217857 0.894019 -0.391495
-32.7915 6.397 -22.709 -0.234703 -0.00368987 2.8 0 0.562822 0.771441 0.296833
-28.7135 10.6695 -13.7145 -0.0613329 0 2.8 0 0.652079 0.664247 -0.365471
-35.673 4.1685 -25.081 -1.15436 -0.00720291 -2.33676 0 0.175951 -0.108906 -0.978356
-30.347 9.9305 -16.806 0.684831 0.136682 2.8 0 0.760057 0.0565294 -0.647393
-37.3488 3.292 -20.4447 0.0465067 0 -3.5 0 -0.304088 -0.86195 0.405676
-27.9509 12.5414 -10.3073 -0.0912321 0 2.8 0 0.710765 0.696514 -0.0983991
-33.4844 3.6785 -25.6612 0.17751 0 2.8 0 -0.460512 0.382141 -0.801185
-35.8203 9.713 -17.188 0.26515 0.243734 3.8 0 -0.922228 0.163739 -0.350264
-33.3835 2.425 -26.0695 -0.228942 0 2.8 0 -0.618819 0.0132389 -0.785422
-32.46 12.019 -9.57525 -0.0417837 0 2.8 0 -0.639848 -0.0604074 0.766124
-38.9154 4.63462 -21.7 -0.316839 0 -3.5 0 -0.967627 0.00807149 0.252254
-30.085 12.8322 -8.60775 0.128854 0 2.8 0 -0.0998294 0.40207 0.91015
-36.4248 5.17544 -15.5797 -0.0644277 0 4.2 0 -0.312066 -0.057898 0.948295
-34.1095 2.296 -22.0005 2.06397 0 -0.462381 0 -0.350873 -0.672949 0.651174
-28.0586 9.1355 -10.6575 0.0185824 0 2.8 0 0.520549 -0.720967 0.457423
-31.2444 0.80225 -27.854 -0.30739 0 2.8 0 -0.42348 -0.156436 -0.892296
-35.8568 9.48713 -16.0051 0.0759854 0.0591638 3.8 0 -0.916992 -0.0619591 0.394064
-33.4548 3.05225 -16.7009 0.00628902 0 4.2 0 0.591886 -0.772506 0.230011
-29.8331 1.98225 -28.1525 0.131213 0 2.8 0 0.296446 0.0393166 -0.95424
-28.9246 2.67088 -26.9334 0.163803 0 2.8 0 0.921791 0.38168 -0.0679841
-28.8062 13.341 -10.1987 -0.0978838 0 2.8 0 0.565133 0.796406 -0.215319
-37.9381 3.51725 -17.2535 -0.0616775 0 4.2 0 -0.763063 -0.631166 0.139156
-38.114 6.24225 -20.3855 -0.762807 -0.0335392 -3.5 0 -0.966093 0.14699 0.212271
-34.2441 4.31462 -25.0709 0.11415 -0.0131884 2.8 0 -0.149559 0.176603 -0.972853
-35.6647 3.60625 -19.2065 0.466822 0 4.2 0 -0.064809 -0.99122 -0.115249
-28.8447 1.26663 -27.1335 -0.0975 0 2.8 0 0.896959 0.074491 -0.435794
-32.5935 0.825 -22.7838 0.66876 0 2.8 0 0.049628 -0.533606 0.844276
-32.3322 13.0662 -19.6919 -0.110985 0 3.8 0 0.213754 0.620333 -0.75465
-29.519 8.383 -16.427 0.578706 0 2.8 0 0.325636 0.0706073 -0.942855
-27.8872 8.74156 -11.748 0.202836 0 2.8 0 0.85946 -0.505916 -0.0733386
-31.547 -0.655 -27.1268 -0.36494 0 2.8 0 -0.475549 -0.475746 -0.739945
-35.0814 10.6811 -14.8962 -0.0143811 0 3.8 0 -0.638681 0.0435312 0.76824
-32.0578 13.5573 -10.9776 0.0594953 0 2.8 0 -0.371509 0.893447 -0.252457
-34.7935 11.4655 -19.2755 -0.117004 0 3.8 0 -0.395833 -0.138196 -0.907865
-29.0303 -0.43725 -27.5532 0.100961 0 2.8 0 0.673262 -0.430968 -0.60082
-33.59 3.85425 -15.7539 -0.078039 0 4.2 0 0.499734 -0.354971 0.790102
-33.91 7.3875 -14.051 -1.11525 -0.477351 3.8 0 -0.674655 -0.349999 0.649879
-28.6021 6.1455 -14.8324 -0.700121 -0.675492 2.8 0 0.680096 -0.713188 -0.169802
-28.175 9.62687 -12.9979 0.0777035 0 2.8 0 0.964796 -0.0174943 -0.262416
-36.1145 8.61475 -17.7698 0.435453 0.186303 3.8 0 -0.830382 0.542388 -0.1276
-31.9886 11.7999 -15.7515 0.148226 0 3.8 0 0.521285 0.671577 0.526542
-35.7246 11.2817 -17.106 -0.0107772 0 3.8 0 -0.986147 -0.149731 -0.0713765
-28.1838 8.507 -13.5845 0.389894 0 2.8 0 0.970201 -0.0181134 0.241625
-32.6765 4.8755 -20.2785 2.02709 -0.287183 3.22161 0 0.919008 0.284291 0.273137
-34.4709 6.85975 -15.239 -0.232662 -0.229951 4.09475 0 -0.4613 -0.101489 0.881421
-38.4074 5.6615 -17.8717 -0.138201 0 4.2 0 -0.950747 0.299145 -0.0811906
-38.0018 1.8495 -23.6041 -2.03804 -0.489578 -3.5 0 -0.371481 -0.924415 0.0863613
-29.485 10.775 -15.1145 0.166798 0 2.8 0 0.437903 0.865679 -0.24257
-34.2528 14.7644 -17.5392 -0.105913 0 3.8 0 0.0723874 0.987462 -0.140279
-32.669 5.76 -19.461 0.258578 -0.969034 4.2 0 0.875591 -0.00989214 -0.482952
-37.395 7.59688 -19.2419 -1.141 -0.273771 0.720708 0 -0.769175 0.582511 0.262775
-36.962 5.15475 -25.717 -2.05224 -0.797693 -3.5 0 0.0242511 0.14624 -0.988952
-38.053 7.42063 -20.6775 -1.98049 -0.22934 -3.5 0 -0.918833 0.367441 -0.143991
-37.3885 2.57075 -21.871 -0.242214 0 -3.5 0 -0.155941 -0.903466 0.39929
-31.909 6.25925 -18.4785 -1.20502 -0.337988 4.2 0 0.907975 -0.337822 -0.247908
-29.9465 5.90963 -15.5919 -1.18613 -0.317094 2.8 0 0.0521806 -0.847784 -0.527768
-28.3355 7.8155 -15.994 0.542298 0 2.8 0 0.713475 -0.108044 -0.692301
-29.7205 13.8704 -9.81175 0.0586435 0 2.8 0 0.18809 0.953313 0.236254
-33.3088 0.089 -25.7595 -0.339577 0 2.8 0 -0.808517 -0.331707 -0.486076
-35.2991 5.48488 -24.9459 -0.660556 0 -1.6725 0 0.123201 0.369402 -0.921067
-32.2276 11.6165 -13.2355 -0.0483066 0 2.8 0 -0.213177 0.882282 -0.419684
-31.1606 4.39725 -24.9526 0.178005 0 2.8 0 0.607317 0.789462 -0.088966
-33.3864 13.931 -15.6226 -0.0795118 0 3.8 0 0.485811 0.567971 0.664377
-33.5614 -0.189625 -23.4589 0.237653 0 2.8 0 -0.643043 -0.683322 0.345784
-29.4594 11.1119 -8.836 -0.324306 0 2.8 0 0.0615988 -0.308196 0.949327
-30.8032 4.12838 -23.8184 0.433879 0 2.8 0 0.900117 0.40364 0.163903
-38.4296 2.73575 -24.9101 -2.01082 -0.706873 -3.5 0 -0.543096 -0.456159 -0.704958
-27.5505 10.0037 -11.8569 0.124979 0 2.8 0 0.977473 -0.131179 -0.165344
-31.4032 12.9858 -9.30112 -0.091379 0 2.8 0 -0.359725 0.400935 0.842526
-30.4001 9.96975 -10.0147 -0.832147 0 2.8 0 -0.241786 -0.544896 0.802887
-34.356 2.51725 -25.5585 0.0317154 0 2.8 0 -0.599374 -0.181187 -0.779693
-33.8714 12.3455 -19.337 -0.104351 0 3.8 0 -0.254304 0.155782 -0.954495
-36.8576 6.62994 -22.8808 -0.548484 0 -3.5 0 -0.305262 0.884644 -0.352448
-36.3814 2.55175 -22.9964 -0.672539 -0.0580267 -3.5 0 -0.0198346 -0.977635 0.20937
-35.5126 2.85831 -21.8513 0.609421 0 -2.3082 0 -0.0979347 -0.890926 0.443463
-35.7339 4.375 -15.6566 -0.0548636 0 4.2 0 -0.194131 -0.297321 0.934833
-33.7366 10.5649 -19.0422 -0.0800018 0 3.8 0 -0.175136 -0.225041 -0.95848
-35.0672 1.96888 -24.0071 0.379755 0 2.8 0 -0.633168 -0.744695 -0.211017
-32.8838 3.38125 -20.0647 3.34995 0 3.07071 0 0.251066 -0.713609 0.654009
-37.8368 4.64888 -20.1166 0.0560334 0 -1.84197 0 -0.887211 -0.261044 0.380411
-29.9753 0.91875 -28.0006 -0.176427 0 2.8 0 0.276423 -0.0804021 -0.957667
-37.225 3.239 -25.2025 -1.78726 -0.519293 -3.5 0 0.00622092 -0.298258 -0.954465
-33.1389 9.53537 -13.1329 -0.176727 0 3.23324 0 -0.905498 -0.0908556 0.414511
-29.888 11.0943 -13.3785 -0.291675 0 2.8 0 0.195983 0.85516 -0.479887
-35.0072 5.055 -15.4029 -0.0740033 0 4.2 0 -0.0436342 -0.144222 0.988583
-35.4905 14.1044 -18.1201 -0.114068 0 3.8 0 -0.663765 0.598723 -0.44827
-28.8477 12.8519 -9.09894 0.0939662 0 2.8 0 0.515515 0.512817 0.686486
-31.5308 7.87694 -17.5099 -0.417349 -0.90259 4.18309 0 0.881913 -0.039587 -0.469747
-32.6924 -1.07506 -24.0378 0.0498335 0 2.8 0 -0.531702 -0.769309 0.354199
-30.8854 13.6896 -10.0821 -0.110857 0 2.8 0 -0.193754 0.939155 0.283632
-32.428 1.561 -26.773 -0.621355 0 2.8 0 -0.686141 -0.145011 -0.712869
-30.8283 6.92912 -16.2687 -0.201512 0 2.8 0 0.42212 -0.455721 -0.783666
-28.1165 10.7712 -12.4965 -0.238624 0 2.8 0 0.725754 0.380744 -0.572988
-35.2279 10.2924 -18.2763 -0.0240203 0 3.8 0 -0.743848 -0.228192 -0.628186
-34.73 8.94025 -18.7397 0.13713 0 4.12705 0 -0.384847 0.393834 -0.834738
-37.1974 7.01194 -21.9517 -0.907414 -0.134329 -3.5 0 -0.541387 0.678534 -0.496479
-32.7155 13.7087 -17.4539 -0.0653433 0 3.8 0 0.561637 0.825956 -0.048583
-30.5946 13.4521 -11.3696 -0.249077 0 2.8 0 0.158635 0.858792 -0.487146
-35.9842 7.69275 -16.4499 0.481272 0.0631153 3.8 0 -0.745591 0.312871 0.588393
-32.186 9.76412 -18.8722 -0.0650467 0 3.8 0 0.514026 -0.306145 -0.801282
-32.7159 11.6141 -14.5879 0.016293 0 3.8 0 0.196949 0.901123 0.386249
-32.5874 1.61775 -21.8443 3.4198 0 2.8 0 -0.102276 -0.79856 0.593163
-33.8403 7.53162 -19.6996 0.131758 0 4.2 0 0.27653 0.477385 -0.834047
-33.6115 6.24131 -24.8934 -1.5033 -0.3947 2.8 0 0.0880555 0.564396 -0.820794
-29.3687 9.97175 -15.7519 0.550661 0 2.8 0 0.623764 0.343293 -0.702188
-29.2877 -0.825906 -26.0458 -0.00706763 0 2.8 0 0.709808 -0.692902 0.126726
-30.9106 12.3861 -18.1878 -0.0313886 0 3.8 0 0.953104 0.242618 -0.180914
-34.3416 2.79425 -17.6411 0.146603 0 4.2 0 -0.0127514 -0.993972 -0.108889
-31.5981 13.3006 -18.302 -0.0749203 0 3.8 0 0.602173 0.792367 -0.097691
-31.5623 -0.851313 -23.6604 -0.0412933 0 2.8 0 0.10317 -0.592483 0.79895
-30.635 6.59713 -13.2257 -0.81287 -0.0289276 2.8 0 -0.18441 -0.805262 0.563512
-35.6426 3.15194 -17.4809 0.128886 0 4.2 0 -0.0482341 -0.995661 -0.0795761
-32.1504 -1.68475 -25.1079 0.0740321 0 2.8 0 -0.425477 -0.89973 0.0972343
-34.766 7.6565 -20.336 0.0185177 0 1.40245 0 0.529712 0.762665 -0.371144
-32.1895 7.429 -13.3497 -0.869853 0 2.8 0 -0.413118 -0.737892 0.533712
-39.0656 3.53837 -23.667 -1.92311 0 -3.5 0 -0.983783 -0.13308 -0.120251
-35.6919 3.117 -24.9081 -0.419111 0 1.61742 0 -0.0588798 -0.436083 -0.897978
-35.3845 7.1775 -22.7559 -0.215231 0 -3.5 0 0.0147747 0.947421 -0.31965
-32.058 5.6235 -15.9055 -0.223706 0 3.45563 0 0.661159 -0.699753 0.270583
-28.392 9.30562 -15.1433 0.420717 0 2.8 0 0.84153 0.369647 -0.393939
-32.4416 11.5309 -19.7247 -0.0885535 0 3.8 0 0.0785305 -0.199278 -0.976791
-32.2974 9.16525 -11.6806 -0.222939 0 2.8 0 -0.606913 -0.498166 0.619264
-33.3624 6.1575 -15.3821 -0.354551 -0.0110431 3.82116 0 0.0423007 -0.59927 0.799429
-32.0592 5.61462 -23.8118 0.129027 -0.00323923 2.8 0 0.700554 0.65801 -0.276127
-33.9416 9.74781 -14.5451 0.0649217 -0.00350148 3.8 0 -0.756844 -0.0644647 0.650409
-31.4685 9.441 -10.531 -0.469342 0 2.8 0 -0.372058 -0.602532 0.706065
-34.8121 12.7355 -18.9045 -0.110635 0 3.8 0 -0.459111 0.239109 -0.855595
-33.4408 10.8177 -13.7758 -0.0490136 0 2.85081 0 -0.718319 0.436885 0.541433
-35.8244 8.14494 -19.5646 -0.356129 -0.412578 -3.5 0 -0.0810541 0.975153 -0.206172
-31.0685 4.20662 -22.0487 4.07629 0 2.8 0 0.887331 0.376996 0.265552
-33.5784 6.02863 -21.1142 0.873978 0 3.07097 0 0.696773 0.716268 0.0383086
-36.9652 3.1215 -16.4504 -0.0562706 0 4.2 0 -0.243349 -0.784528 0.570348
-30.9247 10.6372 -17.5105 0.337887 0.421439 3.20657 0 0.880163 -0.178211 -0.439948
-30.7003 7.34625 -11.871 -0.0650911 0 2.8 0 -0.143261 -0.735297 0.662431
-31.053 11.0395 -9.1795 -0.416642 0 2.8 0 -0.305173 -0.357324 0.882717
-35.7026 13.9052 -16.1362 -0.0981652 0 3.8 0 -0.583423 0.625006 0.518638
-31.4551 3.29825 -20.6429 4.65907 0 2.8 0 0.760231 0.0639724 0.646495
-29.033 1.32275 -25.6192 -0.3355 0 2.8 0 0.891781 0.14048 0.430107
-27.341 11.2211 -11.0317 0.0472257 0 2.8 0 0.926825 0.286657 -0.242536
-30.0778 3.67637 -26.4107 -0.0766893 0 2.8 0 0.486767 0.853046 -0.18807
-30.0929 1.49275 -24.7046 -0.678467 0 2.8 0 0.756546 0.0858268 0.648283
-30.4816 -1.7565 -25.9958 0.10752 0 2.8 0 0.204006 -0.962974 -0.176244
-33.1069 11.5626 -11.8721 0.0811776 0 2.8 0 -0.929985 0.33979 -0.140249
-36.8601 6.40403 -16.4711 0.00999125 0 4.2 0 -0.574367 0.496596 0.650765
-27.7817 10.2207 -9.78275 -0.0300955 0 2.8 0 0.642107 -0.52005 0.563246
-38.1651 5.784 -23.0802 -0.839274 0 -3.5 0 -0.689108 0.694924 -0.205452
-37.3271 3.71222 -19.1545 0.0818436 0 4.2 0 -0.713981 -0.681864 -0.159037
-35.282 11.8454 -15.4991 -0.0401689 0 3.8 0 -0.670644 0.116334 0.7326
-29.4505 11.8247 -12.2778 -0.55864 0 2.8 0 0.345875 0.711737 -0.611393
-33.6 2.74714 -21.1958 9.31922 0 2.8 0 -0.223725 -0.83088 0.509495
3 190 239 100
3 239 65 82
3 65 104 82
3 170 177 65
3 104 65 177
3 177 170 197
3 197 198 177
3 49 95 197
3 48 201 42
3 49 240 95
3 190 100 205
3 240 126 147
3 194 240 147
3 183 43 60
3 183 60 227
3 227 60 68
3 60 43 196
3 43 269 196
3 269 80 134
3 134 80 82
3 114 128 198
3 137 273 198
3 225 42 150
3 150 42 187
3 42 201 187
3 187 201 73
3 73 194 16
3 73 16 182
3 16 194 132
3 132 194 130
3 130 119 132
3 119 88 123
3 44 68 241
3 44 241 70
3 241 68 60
3 241 60 196
3 70 241 94
3 196 219 241
3 94 241 219
3 269 36 219
3 219 36 146
3 219 146 176
3 146 134 203
3 92 106 169
3 66 267 136
3 97 145 30
3 145 26 255
3 26 148 235
3 235 148 231
3 231 148 54
3 114 273 116
3 46 260 202
3 54 202 108
3 54 108 87
3 4 178 173
3 260 112 167
3 34 84 253
3 253 84 189
3 84 34 98
3 84 98 264
3 34 38 98
3 264 98 3
3 38 225 98
3 98 225 150
3 98 150 3
3 233 212 236
3 105 233 236
3 236 182 15
3 182 214 79
3 214 182 16
3 214 55 79
3 57 89 263
3 189 185 247
3 185 189 67
3 67 189 264
3 67 264 41
3 122 265 229
3 265 12 229
3 265 154 12
3 204 142 149
3 149 158 204
3 261 264 122
3 247 124 74
3 74 124 112
3 112 124 254
3 4 173 226
3 124 44 254
3 252 226 237
3 252 218 226
3 237 94 252
3 252 174 115
3 174 146 92
3 20 174 92
3 92 169 20
3 20 267 118
3 115 20 118
3 66 222 267
3 66 208 168
3 160 168 246
3 208 136 199
3 199 255 52
3 52 255 235
3 52 235 231
3 246 159 13
3 159 93 13
3 117 178 242
3 107 242 178
3 242 93 117
3 107 211 215
3 211 78 1
3 101 211 223
3 1 223 211
3 78 71 1
3 1 71 223
3 223 71 200
3 200 218 217
3 157 195 200
3 200 195 244
3 50 120 250
3 120 50 165
3 115 163 252
3 118 222 115
3 163 115 222
3 131 140 165
3 165 140 14
3 160 99 248
3 140 248 155
3 206 99 6
3 206 6 245
3 99 238 6
3 238 246 234
3 234 246 47
3 234 47 24
3 63 90 234
3 234 90 257
3 90 63 58
3 63 161 58
3 56 58 166
3 56 166 162
3 56 162 153
3 228 243 152
3 228 152 76
3 76 127 228
3 223 256 101
3 86 230 256
3 256 230 59
3 256 59 127
3 172 40 23
3 151 195 40
3 40 195 250
3 40 250 23
3 271 110 259
3 259 209 22
3 209 120 22
3 271 21 165
3 271 165 14
3 271 155 102
3 102 155 251
3 155 248 251
3 266 184 251
3 251 184 224
3 11 266 75
3 245 113 257
3 245 257 96
3 257 238 234
3 96 257 29
3 81 96 138
3 29 138 96
3 29 90 56
3 29 56 138
3 138 56 153
3 268 138 191
3 268 191 262
3 162 216 191
3 162 243 125
3 125 216 162
3 216 125 272
3 207 272 125
3 171 17 85
3 17 171 228
3 207 31 184
3 85 17 164
3 164 17 59
3 164 59 72
3 17 127 59
3 72 59 230
3 224 164 10
3 164 72 5
3 72 232 5
3 5 232 220
3 5 220 186
3 10 186 102
3 10 102 224
3 186 110 102
3 8 9 32
3 9 266 32
3 32 266 11
3 32 11 156
3 192 135 213
3 69 75 266
3 193 249 81
3 249 96 81
3 193 81 35
3 81 268 35
3 193 188 258
3 210 103 129
3 129 272 144
3 61 262 216
3 216 262 191
3 198 197 48
3 48 197 201
3 201 197 95
3 240 201 95
3 240 205 126
3 147 183 227
3 126 183 147
3 203 134 104
3 128 270 203
3 128 203 104
3 148 270 128
3 148 128 114
3 137 198 48
3 88 119 130
3 88 130 147
3 88 147 227
3 185 123 88
3 247 185 88
3 247 88 227
3 254 44 70
3 254 70 237
3 219 196 269
3 203 92 146
3 270 92 203
3 116 54 148
3 114 116 148
3 54 116 202
3 202 116 273
3 117 173 178
3 167 202 260
3 202 167 108
3 108 167 173
3 108 173 117
3 254 167 112
3 167 254 173
3 189 84 264
3 226 173 237
3 237 173 254
3 163 218 252
3 20 115 174
3 109 168 160
3 168 222 66
3 222 168 109
3 246 168 208
3 77 215 179
3 215 77 242
3 215 242 107
3 53 179 215
3 76 152 215
3 215 211 76
3 101 76 211
3 218 200 71
3 250 195 157
3 131 165 217
3 217 165 50
3 163 131 218
3 218 131 217
3 267 222 118
3 248 140 109
3 248 109 160
3 206 251 248
3 251 206 266
3 99 206 248
3 77 24 47
3 77 47 242
3 242 246 13
3 246 242 47
3 56 90 58
3 162 166 243
3 101 127 76
3 256 127 101
3 40 172 220
3 271 102 110
3 31 207 171
3 31 171 85
3 184 31 224
3 164 224 85
3 85 224 31
3 10 164 5
3 10 5 186
3 249 193 258
3 144 210 129
3 49 170 190
3 205 49 190
3 170 65 239
3 190 170 239
3 205 240 49
3 49 197 170
3 239 82 80
3 91 239 80
3 239 91 100
3 91 80 269
3 104 134 82
3 104 177 128
3 128 177 198
3 48 42 137
3 137 42 225
3 201 194 73
3 240 194 201
3 147 130 194
3 43 175 7
3 91 43 7
3 91 269 43
3 43 183 175
3 183 126 175
3 205 175 126
3 100 175 205
3 7 175 100
3 7 100 91
3 124 37 68
3 37 227 68
3 68 44 124
3 124 247 37
3 37 247 227
3 134 146 36
3 36 269 134
3 26 235 255
3 270 26 145
3 106 270 145
3 270 106 92
3 106 145 97
3 30 267 97
3 136 267 30
3 270 148 26
3 198 273 114
3 253 260 34
3 260 46 38
3 34 260 38
3 38 46 225
3 253 112 260
3 46 202 225
3 212 150 187
3 212 233 150
3 212 187 73
3 182 236 212
3 182 212 73
3 16 132 214
3 119 89 64
3 119 64 55
3 55 132 119
3 132 55 214
3 119 123 89
3 263 89 123
3 263 123 185
3 74 189 247
3 253 189 74
3 237 70 94
3 174 176 146
3 174 33 176
3 33 174 252
3 252 94 33
3 33 94 219
3 33 219 176
3 169 106 97
3 169 97 0
3 0 97 267
3 20 0 267
3 0 20 169
3 66 136 208
3 255 199 136
3 255 136 30
3 255 30 145
3 87 108 93
3 141 87 93
3 87 141 231
3 159 141 93
3 159 246 208
3 93 108 117
3 231 54 87
3 78 178 4
3 78 211 178
3 4 226 78
3 226 71 78
3 178 211 107
3 253 74 112
3 185 67 263
3 233 45 3
3 233 3 150
3 3 45 264
3 122 105 265
3 122 45 105
3 105 45 233
3 45 122 264
3 265 105 236
3 182 79 154
3 182 154 15
3 236 15 265
3 154 265 15
3 204 121 139
3 139 154 79
3 154 121 12
3 154 139 121
3 89 57 64
3 64 139 55
3 55 139 79
3 139 142 204
3 142 139 64
3 64 57 142
3 143 142 27
3 143 27 263
3 57 263 27
3 143 149 142
3 142 57 27
3 261 143 41
3 41 143 67
3 261 41 264
3 67 143 263
3 143 261 149
3 19 149 261
3 122 19 261
3 122 229 19
3 158 121 204
3 158 149 19
3 19 229 158
3 12 158 229
3 158 12 121
3 226 218 71
3 217 50 157
3 200 217 157
3 50 250 157
3 109 140 222
3 222 140 163
3 163 140 131
3 246 238 160
3 99 160 238
3 141 159 62
3 62 159 208
3 62 208 199
3 62 199 52
3 62 52 231
3 62 231 141
3 13 93 242
3 161 83 179
3 83 24 179
3 24 77 179
3 179 53 161
3 83 161 63
3 63 234 83
3 24 83 234
3 28 243 166
3 28 161 180
3 243 28 180
3 243 180 152
3 28 166 58
3 28 58 161
3 180 161 53
3 180 53 152
3 53 215 152
3 223 200 244
3 223 244 86
3 86 256 223
3 232 230 39
3 86 39 230
3 39 86 244
3 151 40 220
3 151 220 232
3 151 232 39
3 151 39 244
3 151 244 195
3 23 209 172
3 209 23 250
3 259 110 111
3 250 120 209
3 209 259 172
3 172 259 111
3 172 111 25
3 172 25 220
3 21 259 22
3 22 120 21
3 21 120 165
3 271 259 21
3 140 155 14
3 271 14 155
3 206 245 2
3 206 2 266
3 113 245 6
3 113 6 238
3 238 257 113
3 90 29 257
3 162 191 153
3 138 153 191
3 228 171 243
3 243 171 125
3 125 171 207
3 228 127 17
3 232 72 230
3 220 25 186
3 186 25 111
3 186 111 110
3 102 251 224
3 8 272 207
3 8 207 184
3 8 184 9
3 266 9 184
3 156 213 221
3 156 221 32
3 32 221 8
3 8 221 272
3 51 156 11
3 11 75 51
3 51 75 133
3 51 133 192
3 213 51 192
3 51 213 156
3 249 258 69
3 69 133 75
3 133 258 192
3 258 133 69
3 245 249 2
3 2 249 69
3 2 69 266
3 96 249 245
3 138 268 81
3 35 268 188
3 188 268 103
3 35 188 193
3 188 103 210
3 18 103 268
3 268 262 18
3 18 262 103
3 129 103 262
3 262 61 129
3 129 61 272
3 216 272 61
3 144 221 181
3 221 144 272
3 181 221 213
3 210 181 135
3 181 210 144
3 135 181 213
3 258 188 135
3 258 135 192
3 135 188 210
3 225 202 273
3 225 273 137
